<svg xmlns="http://www.w3.org/2000/svg" viewBox="0 0 1280 800" font-family="Inter, system-ui, sans-serif">
  <defs>
    <linearGradient id="page" x1="0" y1="0" x2="1" y2="1"><stop offset="0" stop-color="#0a0911"/><stop offset="1" stop-color="#0d0c16"/></linearGradient>
    <linearGradient id="brand" x1="0" y1="0" x2="1" y2="0"><stop offset="0" stop-color="#9d7bff"/><stop offset="1" stop-color="#ff4d8d"/></linearGradient>
    <linearGradient id="placebet" x1="0" y1="0" x2="1" y2="0"><stop offset="0" stop-color="#7c5cff"/><stop offset="1" stop-color="#ff4d8d"/></linearGradient>
  </defs>
  <rect width="1280" height="800" fill="url(#page)"/>

  <!-- ===== Sidebar ===== -->
  <rect x="0" y="0" width="240" height="800" fill="#0d0c16"/>
  <line x1="240" y1="0" x2="240" y2="800" stroke="#fff" stroke-opacity="0.05"/>
  <g transform="translate(20,22)">
    <rect width="34" height="34" rx="9" fill="#0d0c16" stroke="url(#brand)" stroke-width="1.5"/>
    <text x="10" y="24" font-size="20" font-weight="900" fill="url(#brand)">C</text>
    <text x="46" y="25" font-size="22" font-weight="800" fill="#fff">Cr<tspan fill="url(#brand)">ow</tspan></text>
  </g>
  <g font-size="14" font-weight="600">
    <text x="44" y="103" fill="#94a3b8">Home</text><circle cx="28" cy="98" r="6" fill="none" stroke="#94a3b8" stroke-width="1.5"/>
    <rect x="14" y="123" width="212" height="40" rx="11" fill="#171527"/><rect x="14" y="123" width="3" height="40" rx="2" fill="#7c5cff"/>
    <text x="44" y="148" fill="#fff">Sports</text><circle cx="28" cy="143" r="6" fill="none" stroke="#fff" stroke-width="1.5"/>
    <rect x="178" y="130" width="42" height="20" rx="6" fill="#ff3b5c" fill-opacity="0.15"/><text x="186" y="144" font-size="10" fill="#ff3b5c" font-weight="700">LIVE</text>
    <text x="44" y="193" fill="#94a3b8">Casino</text><rect x="22" y="180" width="12" height="12" rx="3" fill="none" stroke="#94a3b8" stroke-width="1.5"/>
    <text x="44" y="238" fill="#94a3b8">Crash</text><path d="M22 240 l5-6 4 4 6-9" stroke="#7c5cff" stroke-width="1.6" fill="none"/>
    <text x="44" y="283" fill="#94a3b8">X-Roulette</text><circle cx="28" cy="278" r="6" fill="none" stroke="#00e701" stroke-width="1.5"/>
    <text x="44" y="328" fill="#94a3b8">Jackpot</text><path d="M28 318 l2 5 5 .5 -4 4 1 5 -4 -3 -4 3 1 -5 -4 -4 5 -.5z" fill="#ffb800"/>
    <text x="44" y="373" fill="#94a3b8">Rewards</text><rect x="22" y="362" width="12" height="10" rx="2" fill="none" stroke="#ff4d8d" stroke-width="1.5"/>
  </g>
  <rect x="14" y="420" width="212" height="86" rx="14" fill="#12111f" stroke="#fff" stroke-opacity="0.05"/>
  <text x="30" y="448" font-size="12.5" font-weight="700" fill="#fff">🛡 Provably Fair</text>
  <text x="30" y="470" font-size="11" fill="#64748b">Every round verifiable</text>
  <text x="30" y="486" font-size="11" fill="#64748b">with SHA-256 seeds.</text>

  <!-- ===== Topbar ===== -->
  <rect x="240" y="0" width="1040" height="64" fill="#0d0c16"/>
  <line x1="240" y1="64" x2="1280" y2="64" stroke="#fff" stroke-opacity="0.05"/>
  <rect x="268" y="16" width="340" height="34" rx="10" fill="#171527"/>
  <text x="296" y="38" font-size="13" fill="#64748b">Search games, teams, markets…</text>
  <rect x="900" y="14" width="120" height="38" rx="11" fill="#171527"/>
  <text x="918" y="32" font-size="13" font-family="JetBrains Mono, monospace" font-weight="700" fill="#fff">10,000.00</text>
  <text x="918" y="46" font-size="9" fill="#64748b">CREDITS</text>
  <rect x="1032" y="14" width="104" height="38" rx="11" fill="#00e701"/><text x="1052" y="38" font-size="13" font-weight="800" fill="#000">+ Deposit</text>
  <rect x="1148" y="14" width="110" height="38" rx="11" fill="#171527"/>
  <circle cx="1168" cy="33" r="13" fill="#7c5cff"/><text x="1163" y="38" font-size="12" font-weight="700" fill="#fff">D</text>
  <text x="1188" y="30" font-size="12" font-weight="700" fill="#fff">demo</text><text x="1188" y="44" font-size="10" fill="#ffb800">Lvl 1</text>

  <!-- ===== LEFT sub-column: All Sports nav ===== -->
  <rect x="268" y="86" width="180" height="674" rx="16" fill="#12111f" stroke="#fff" stroke-opacity="0.06"/>
  <text x="288" y="116" font-size="13" font-weight="800" fill="#fff">All Sports</text>
  <g font-size="12.5" font-weight="600">
    <text x="288" y="150" font-size="10.5" font-weight="700" fill="#64748b">SOCCER</text>
    <rect x="280" y="160" width="156" height="32" rx="9" fill="#171527"/>
    <circle cx="296" cy="176" r="4" fill="#3dff7a"/><text x="310" y="180" fill="#fff">EPL</text>
    <text x="310" y="216" fill="#94a3b8">La Liga</text>
    <text x="310" y="248" fill="#94a3b8">Serie A</text>

    <text x="288" y="288" font-size="10.5" font-weight="700" fill="#64748b">BASKETBALL</text>
    <text x="310" y="320" fill="#94a3b8">NBA</text>
    <text x="310" y="352" fill="#94a3b8">EuroLeague</text>

    <text x="288" y="392" font-size="10.5" font-weight="700" fill="#64748b">AMERICAN FOOTBALL</text>
    <text x="310" y="424" fill="#94a3b8">NFL</text>

    <text x="288" y="464" font-size="10.5" font-weight="700" fill="#64748b">ICE HOCKEY</text>
    <text x="310" y="496" fill="#94a3b8">NHL</text>
  </g>

  <!-- ===== MIDDLE sub-column: Sportsbook ===== -->
  <text x="460" y="116" font-size="22" font-weight="900" fill="#fff">Sportsbook</text>
  <rect x="610" y="98" width="64" height="24" rx="8" fill="#ff3b5c" fill-opacity="0.15"/><text x="624" y="114" font-size="11" font-weight="700" fill="#ff3b5c">● LIVE</text>

  <!-- event cards grid 2x2, each ~225 wide -->
  <g font-size="13">
    <!-- card 1 (top-left) -->
    <rect x="460" y="140" width="225" height="200" rx="15" fill="#12111f" stroke="#fff" stroke-opacity="0.06"/>
    <text x="478" y="166" font-size="10.5" font-weight="700" fill="#64748b">EPL</text>
    <rect x="617" y="153" width="50" height="20" rx="6" fill="#ff3b5c" fill-opacity="0.15"/><text x="626" y="167" font-size="10" fill="#ff3b5c">● LIVE</text>
    <text x="478" y="200" font-weight="700" fill="#fff">Arsenal</text><text x="636" y="200" font-size="11" fill="#64748b">Home</text>
    <text x="478" y="226" font-weight="700" fill="#fff">Man City</text><text x="636" y="226" font-size="11" fill="#64748b">Away</text>
    <rect x="478" y="248" width="62" height="44" rx="9" fill="#1a1430" stroke="#7c5cff"/><text x="509" y="268" font-size="9.5" fill="#94a3b8" text-anchor="middle">Arsenal</text><text x="509" y="285" font-size="13" font-family="JetBrains Mono, monospace" font-weight="700" fill="#3dff7a" text-anchor="middle">1.50</text>
    <rect x="551" y="248" width="62" height="44" rx="9" fill="#171527"/><text x="582" y="268" font-size="9.5" fill="#94a3b8" text-anchor="middle">Draw</text><text x="582" y="285" font-size="13" font-family="JetBrains Mono, monospace" font-weight="700" fill="#3dff7a" text-anchor="middle">4.20</text>
    <rect x="624" y="248" width="62" height="44" rx="9" fill="#171527"/><text x="655" y="268" font-size="9.5" fill="#94a3b8" text-anchor="middle">Man City</text><text x="655" y="285" font-size="13" font-family="JetBrains Mono, monospace" font-weight="700" fill="#3dff7a" text-anchor="middle">2.10</text>

    <!-- card 2 (top-right) -->
    <rect x="705" y="140" width="225" height="200" rx="15" fill="#12111f" stroke="#fff" stroke-opacity="0.06"/>
    <text x="723" y="166" font-size="10.5" font-weight="700" fill="#64748b">EPL</text>
    <rect x="888" y="153" width="24" height="20" rx="6" fill="#242238"/><text x="900" y="167" font-size="10" fill="#94a3b8" text-anchor="middle">3h</text>
    <text x="723" y="200" font-weight="700" fill="#fff">Liverpool</text><text x="881" y="200" font-size="11" fill="#64748b">Home</text>
    <text x="723" y="226" font-weight="700" fill="#fff">Chelsea</text><text x="881" y="226" font-size="11" fill="#64748b">Away</text>
    <rect x="723" y="248" width="62" height="44" rx="9" fill="#171527"/><text x="754" y="268" font-size="9.5" fill="#94a3b8" text-anchor="middle">Liverpool</text><text x="754" y="285" font-size="13" font-family="JetBrains Mono, monospace" font-weight="700" fill="#3dff7a" text-anchor="middle">1.85</text>
    <rect x="796" y="248" width="62" height="44" rx="9" fill="#171527"/><text x="827" y="268" font-size="9.5" fill="#94a3b8" text-anchor="middle">Draw</text><text x="827" y="285" font-size="13" font-family="JetBrains Mono, monospace" font-weight="700" fill="#3dff7a" text-anchor="middle">3.60</text>
    <rect x="869" y="248" width="62" height="44" rx="9" fill="#171527"/><text x="900" y="268" font-size="9.5" fill="#94a3b8" text-anchor="middle">Chelsea</text><text x="900" y="285" font-size="13" font-family="JetBrains Mono, monospace" font-weight="700" fill="#3dff7a" text-anchor="middle">2.45</text>

    <!-- card 3 (bottom-left) -->
    <rect x="460" y="356" width="225" height="200" rx="15" fill="#12111f" stroke="#fff" stroke-opacity="0.06"/>
    <text x="478" y="382" font-size="10.5" font-weight="700" fill="#64748b">NBA</text>
    <rect x="643" y="369" width="24" height="20" rx="6" fill="#242238"/><text x="655" y="383" font-size="10" fill="#94a3b8" text-anchor="middle">5h</text>
    <text x="478" y="416" font-weight="700" fill="#fff">Lakers</text><text x="636" y="416" font-size="11" fill="#64748b">Home</text>
    <text x="478" y="442" font-weight="700" fill="#fff">Celtics</text><text x="636" y="442" font-size="11" fill="#64748b">Away</text>
    <rect x="478" y="464" width="95" height="44" rx="9" fill="#171527"/><text x="525" y="484" font-size="9.5" fill="#94a3b8" text-anchor="middle">Lakers</text><text x="525" y="501" font-size="13" font-family="JetBrains Mono, monospace" font-weight="700" fill="#3dff7a" text-anchor="middle">1.95</text>
    <rect x="591" y="464" width="95" height="44" rx="9" fill="#171527"/><text x="638" y="484" font-size="9.5" fill="#94a3b8" text-anchor="middle">Celtics</text><text x="638" y="501" font-size="13" font-family="JetBrains Mono, monospace" font-weight="700" fill="#3dff7a" text-anchor="middle">1.90</text>

    <!-- card 4 (bottom-right) -->
    <rect x="705" y="356" width="225" height="200" rx="15" fill="#12111f" stroke="#fff" stroke-opacity="0.06"/>
    <text x="723" y="382" font-size="10.5" font-weight="700" fill="#64748b">NBA</text>
    <rect x="888" y="369" width="24" height="20" rx="6" fill="#242238"/><text x="900" y="383" font-size="10" fill="#94a3b8" text-anchor="middle">8h</text>
    <text x="723" y="416" font-weight="700" fill="#fff">Warriors</text><text x="881" y="416" font-size="11" fill="#64748b">Home</text>
    <text x="723" y="442" font-weight="700" fill="#fff">Nuggets</text><text x="881" y="442" font-size="11" fill="#64748b">Away</text>
    <rect x="723" y="464" width="95" height="44" rx="9" fill="#171527"/><text x="770" y="484" font-size="9.5" fill="#94a3b8" text-anchor="middle">Warriors</text><text x="770" y="501" font-size="13" font-family="JetBrains Mono, monospace" font-weight="700" fill="#3dff7a" text-anchor="middle">2.25</text>
    <rect x="836" y="464" width="95" height="44" rx="9" fill="#171527"/><text x="883" y="484" font-size="9.5" fill="#94a3b8" text-anchor="middle">Nuggets</text><text x="883" y="501" font-size="13" font-family="JetBrains Mono, monospace" font-weight="700" fill="#3dff7a" text-anchor="middle">1.65</text>
  </g>

  <!-- ===== RIGHT sub-column: Bet Slip ===== -->
  <rect x="942" y="86" width="310" height="674" rx="16" fill="#12111f" stroke="#fff" stroke-opacity="0.06"/>
  <text x="966" y="120" font-size="15" font-weight="800" fill="#fff">⚡ Bet Slip</text>
  <rect x="1208" y="104" width="24" height="22" rx="7" fill="#7c5cff"/><text x="1220" y="120" font-size="12" font-weight="800" fill="#fff" text-anchor="middle">2</text>

  <!-- selection 1 -->
  <rect x="962" y="140" width="270" height="60" rx="11" fill="#171527"/>
  <text x="980" y="166" font-size="13" font-weight="700" fill="#fff">Arsenal — ML</text>
  <text x="980" y="186" font-size="11" fill="#94a3b8">EPL · Moneyline</text>
  <text x="1214" y="170" font-size="14" font-family="JetBrains Mono, monospace" font-weight="700" fill="#3dff7a" text-anchor="end">1.50</text>

  <!-- selection 2 -->
  <rect x="962" y="210" width="270" height="60" rx="11" fill="#171527"/>
  <text x="980" y="236" font-size="13" font-weight="700" fill="#fff">Lakers — ML</text>
  <text x="980" y="256" font-size="11" fill="#94a3b8">NBA · Moneyline</text>
  <text x="1214" y="240" font-size="14" font-family="JetBrains Mono, monospace" font-weight="700" fill="#3dff7a" text-anchor="end">1.95</text>

  <!-- parlay odds -->
  <rect x="962" y="284" width="270" height="40" rx="11" fill="#1a1430" stroke="#7c5cff" stroke-opacity="0.4"/>
  <text x="980" y="309" font-size="12" fill="#c4b5fd">2-leg parlay odds</text>
  <text x="1214" y="310" font-size="14" font-family="JetBrains Mono, monospace" font-weight="800" fill="#9d7bff" text-anchor="end">2.93×</text>

  <!-- stake -->
  <text x="966" y="356" font-size="12" font-weight="700" fill="#94a3b8">Stake</text>
  <rect x="962" y="366" width="270" height="44" rx="11" fill="#0d0c16" stroke="#fff" stroke-opacity="0.06"/>
  <text x="980" y="394" font-size="16" font-family="JetBrains Mono, monospace" font-weight="700" fill="#fff">50</text>
  <text x="1214" y="394" font-size="12" fill="#64748b" text-anchor="end">CREDITS</text>
  <rect x="962" y="420" width="84" height="30" rx="8" fill="#171527"/><text x="1004" y="440" font-size="12" fill="#94a3b8" text-anchor="middle">10</text>
  <rect x="1055" y="420" width="84" height="30" rx="8" fill="#1a1430" stroke="#7c5cff"/><text x="1097" y="440" font-size="12" fill="#c4b5fd" text-anchor="middle">50</text>
  <rect x="1148" y="420" width="84" height="30" rx="8" fill="#171527"/><text x="1190" y="440" font-size="12" fill="#94a3b8" text-anchor="middle">100</text>

  <!-- potential return -->
  <rect x="962" y="466" width="270" height="44" rx="11" fill="#12251a"/>
  <text x="980" y="493" font-size="12" fill="#94a3b8">Potential return</text>
  <text x="1214" y="494" font-size="15" font-family="JetBrains Mono, monospace" font-weight="800" fill="#3dff7a" text-anchor="end">146.50</text>

  <!-- place bet -->
  <rect x="962" y="526" width="270" height="48" rx="13" fill="url(#placebet)"/>
  <text x="1097" y="556" font-size="15" font-weight="800" fill="#fff" text-anchor="middle">Place Bet</text>

  <!-- ===== Live ticker ===== -->
  <rect x="240" y="772" width="1040" height="28" fill="#0d0c16"/><line x1="240" y1="772" x2="1280" y2="772" stroke="#fff" stroke-opacity="0.05"/>
  <text x="268" y="790" font-size="11" font-weight="800" fill="#3dff7a">● LIVE WINS</text>
  <rect x="360" y="778" width="150" height="18" rx="5" fill="#171527"/><text x="370" y="791" font-size="10" fill="#94a3b8">degenDan · Crash <tspan fill="#3dff7a">+1,240</tspan></text>
  <rect x="520" y="778" width="150" height="18" rx="5" fill="#171527"/><text x="530" y="791" font-size="10" fill="#94a3b8">moonshot · Dice <tspan fill="#3dff7a">+580</tspan></text>
  <rect x="680" y="778" width="160" height="18" rx="5" fill="#171527"/><text x="690" y="791" font-size="10" fill="#94a3b8">cryptoKing · Roulette <tspan fill="#3dff7a">+2,800</tspan></text>
</svg>
