<svg xmlns="http://www.w3.org/2000/svg" viewBox="0 0 1280 800" font-family="Inter, system-ui, sans-serif">
  <defs>
    <linearGradient id="page" x1="0" y1="0" x2="1" y2="1"><stop offset="0" stop-color="#0a0911"/><stop offset="1" stop-color="#0d0c16"/></linearGradient>
    <linearGradient id="brand" x1="0" y1="0" x2="1" y2="0"><stop offset="0" stop-color="#9d7bff"/><stop offset="1" stop-color="#ff4d8d"/></linearGradient>
    <linearGradient id="rew" x1="0" y1="0" x2="1" y2="0"><stop offset="0" stop-color="#ff4d8d" stop-opacity="0.18"/><stop offset="1" stop-color="#ffb800" stop-opacity="0.12"/></linearGradient>
  </defs>
  <rect width="1280" height="800" fill="url(#page)"/>

  <!-- Sidebar -->
  <rect x="0" y="0" width="240" height="800" fill="#0d0c16"/><line x1="240" y1="0" x2="240" y2="800" stroke="#fff" stroke-opacity="0.05"/>
  <g transform="translate(20,22)"><rect width="34" height="34" rx="9" fill="#0d0c16" stroke="url(#brand)" stroke-width="1.5"/><text x="10" y="24" font-size="20" font-weight="900" fill="url(#brand)">C</text><text x="46" y="25" font-size="22" font-weight="800" fill="#fff">Cr<tspan fill="url(#brand)">ow</tspan></text></g>
  <g font-size="14" font-weight="600">
    <text x="44" y="103" fill="#94a3b8">Home</text><circle cx="28" cy="98" r="6" fill="none" stroke="#94a3b8" stroke-width="1.5"/>
    <text x="44" y="148" fill="#94a3b8">Sports</text><circle cx="28" cy="143" r="6" fill="none" stroke="#94a3b8" stroke-width="1.5"/>
    <text x="44" y="193" fill="#94a3b8">Casino</text><rect x="22" y="180" width="12" height="12" rx="3" fill="none" stroke="#94a3b8" stroke-width="1.5"/>
    <text x="44" y="238" fill="#94a3b8">Crash</text><path d="M22 240 l5-6 4 4 6-9" stroke="#7c5cff" stroke-width="1.6" fill="none"/>
    <text x="44" y="283" fill="#94a3b8">X-Roulette</text><circle cx="28" cy="278" r="6" fill="none" stroke="#00e701" stroke-width="1.5"/>
    <text x="44" y="328" fill="#94a3b8">Jackpot</text><path d="M28 318 l2 5 5 .5 -4 4 1 5 -4 -3 -4 3 1 -5 -4 -4 5 -.5z" fill="#ffb800"/>
    <rect x="14" y="350" width="212" height="40" rx="11" fill="#171527"/><rect x="14" y="350" width="3" height="40" rx="2" fill="#7c5cff"/>
    <text x="44" y="375" fill="#fff">Rewards</text><rect x="22" y="364" width="12" height="10" rx="2" fill="none" stroke="#ff4d8d" stroke-width="1.5"/>
  </g>
  <rect x="14" y="420" width="212" height="86" rx="14" fill="#12111f" stroke="#fff" stroke-opacity="0.05"/>
  <text x="30" y="448" font-size="12.5" font-weight="700" fill="#fff">🛡 Provably Fair</text>
  <text x="30" y="470" font-size="11" fill="#64748b">Every round verifiable</text>
  <text x="30" y="486" font-size="11" fill="#64748b">with SHA-256 seeds.</text>

  <!-- Topbar -->
  <rect x="240" y="0" width="1040" height="64" fill="#0d0c16"/><line x1="240" y1="64" x2="1280" y2="64" stroke="#fff" stroke-opacity="0.05"/>
  <rect x="268" y="16" width="340" height="34" rx="10" fill="#171527"/><text x="296" y="38" font-size="13" fill="#64748b">Search games, teams, markets…</text>
  <rect x="900" y="14" width="120" height="38" rx="11" fill="#171527"/><text x="918" y="32" font-size="13" font-family="JetBrains Mono, monospace" font-weight="700" fill="#fff">14,500.00</text><text x="918" y="46" font-size="9" fill="#64748b">CREDITS</text>
  <rect x="1032" y="14" width="104" height="38" rx="11" fill="#00e701"/><text x="1052" y="38" font-size="13" font-weight="800" fill="#000">+ Deposit</text>
  <rect x="1148" y="14" width="110" height="38" rx="11" fill="#171527"/><circle cx="1168" cy="33" r="13" fill="#7c5cff"/><text x="1163" y="38" font-size="12" font-weight="700" fill="#fff">D</text><text x="1188" y="30" font-size="12" font-weight="700" fill="#fff">demo</text><text x="1188" y="44" font-size="10" fill="#ffb800">Lvl 4</text>

  <!-- Hero -->
  <rect x="268" y="86" width="984" height="170" rx="22" fill="url(#rew)" stroke="#fff" stroke-opacity="0.05"/>
  <text x="294" y="134" font-size="30" font-weight="900" fill="#fff">Rewards &amp; Bonuses</text>
  <text x="294" y="164" font-size="14" fill="#94a3b8">Level up as you play. Claim instant rakeback, daily spins and weekly cashback.</text>
  <text x="294" y="200" font-size="13" font-weight="700" fill="#fff">Level 4</text>
  <text x="640" y="200" font-size="13" fill="#94a3b8" text-anchor="end">62% to Lvl 5</text>
  <rect x="294" y="210" width="346" height="12" rx="6" fill="#171527"/>
  <rect x="294" y="210" width="214" height="12" rx="6" fill="url(#brand)"/>

  <!-- Bonus cards row -->
  <g>
    <!-- card template -->
    <rect x="268" y="280" width="318" height="150" rx="16" fill="#12111f" stroke="#fff" stroke-opacity="0.06"/>
    <rect x="288" y="300" width="44" height="44" rx="11" fill="#171527"/><text x="300" y="330" font-size="20">🎁</text>
    <text x="344" y="318" font-size="15" font-weight="800" fill="#fff">Welcome Bonus</text>
    <text x="344" y="338" font-size="11" fill="#3dff7a">up to +5,000</text>
    <text x="288" y="372" font-size="12" fill="#94a3b8">100% match up to 5,000 credits</text>
    <text x="288" y="390" font-size="12" fill="#94a3b8">on your first deposit.</text>
    <rect x="288" y="400" width="278" height="36" rx="11" fill="url(#brand)"/><text x="404" y="423" font-size="13" font-weight="800" fill="#fff" text-anchor="middle">Claim</text>

    <rect x="601" y="280" width="318" height="150" rx="16" fill="#12111f" stroke="#fff" stroke-opacity="0.06"/>
    <rect x="621" y="300" width="44" height="44" rx="11" fill="#171527"/><text x="632" y="330" font-size="20">⚡</text>
    <text x="677" y="318" font-size="15" font-weight="800" fill="#fff">Instant Rakeback</text>
    <text x="677" y="338" font-size="11" fill="#ffb800">42.80 ready</text>
    <text x="621" y="372" font-size="12" fill="#94a3b8">Earn up to 10% rakeback on every</text>
    <text x="621" y="390" font-size="12" fill="#94a3b8">wager, credited live.</text>
    <rect x="621" y="400" width="278" height="36" rx="11" fill="url(#brand)"/><text x="760" y="423" font-size="13" font-weight="800" fill="#fff" text-anchor="middle">Claim</text>

    <rect x="934" y="280" width="318" height="150" rx="16" fill="#12111f" stroke="#fff" stroke-opacity="0.06"/>
    <rect x="954" y="300" width="44" height="44" rx="11" fill="#171527"/><text x="966" y="330" font-size="20">★</text>
    <text x="1010" y="318" font-size="15" font-weight="800" fill="#fff">Daily Free Spin</text>
    <text x="1010" y="338" font-size="11" fill="#3dff7a">up to +1,000</text>
    <text x="954" y="372" font-size="12" fill="#94a3b8">Spin the wheel every 24h for up</text>
    <text x="954" y="390" font-size="12" fill="#94a3b8">to 1,000 credits.</text>
    <rect x="954" y="400" width="278" height="36" rx="11" fill="url(#brand)"/><text x="1093" y="423" font-size="13" font-weight="800" fill="#fff" text-anchor="middle">Spin</text>
  </g>

  <!-- Wager race leaderboard -->
  <rect x="268" y="450" width="984" height="300" rx="16" fill="#12111f" stroke="#fff" stroke-opacity="0.06"/>
  <text x="292" y="484" font-size="16" font-weight="800" fill="#fff">🏆 Wager Race — Top Players</text>
  <g font-size="14">
    <rect x="292" y="500" width="936" height="44" rx="11" fill="#171527"/>
    <text x="312" y="528" font-weight="800" fill="#ffb800">#1</text><text x="356" y="528" font-weight="700" fill="#fff">cryptoKing</text><text x="1208" y="528" font-family="JetBrains Mono, monospace" fill="#3dff7a" text-anchor="end">184,200 wagered</text>
    <rect x="292" y="550" width="936" height="44" rx="11" fill="#171527"/>
    <text x="312" y="578" font-weight="800" fill="#64748b">#2</text><text x="356" y="578" font-weight="700" fill="#fff">moonshot</text><text x="1208" y="578" font-family="JetBrains Mono, monospace" fill="#3dff7a" text-anchor="end">142,800 wagered</text>
    <rect x="292" y="600" width="936" height="44" rx="11" fill="#171527"/>
    <text x="312" y="628" font-weight="800" fill="#64748b">#3</text><text x="356" y="628" font-weight="700" fill="#fff">degenDan</text><text x="1208" y="628" font-family="JetBrains Mono, monospace" fill="#3dff7a" text-anchor="end">98,700 wagered</text>
    <rect x="292" y="650" width="936" height="44" rx="11" fill="#1a1430" stroke="#7c5cff" stroke-opacity="0.4"/>
    <text x="312" y="678" font-weight="800" fill="#64748b">#4</text><text x="356" y="678" font-weight="700" fill="#9d7bff">demo (you)</text><text x="1208" y="678" font-family="JetBrains Mono, monospace" fill="#3dff7a" text-anchor="end">52,400 wagered</text>
    <rect x="292" y="700" width="936" height="44" rx="11" fill="#171527"/>
    <text x="312" y="728" font-weight="800" fill="#64748b">#5</text><text x="356" y="728" font-weight="700" fill="#fff">luckyLuke</text><text x="1208" y="728" font-family="JetBrains Mono, monospace" fill="#3dff7a" text-anchor="end">41,200 wagered</text>
  </g>

  <!-- ticker -->
  <rect x="240" y="772" width="1040" height="28" fill="#0d0c16"/><line x1="240" y1="772" x2="1280" y2="772" stroke="#fff" stroke-opacity="0.05"/>
  <text x="268" y="790" font-size="11" font-weight="800" fill="#3dff7a">● LIVE WINS</text>
  <rect x="360" y="778" width="150" height="18" rx="5" fill="#171527"/><text x="370" y="791" font-size="10" fill="#94a3b8">degenDan · Crash <tspan fill="#3dff7a">+1,240</tspan></text>
  <rect x="520" y="778" width="150" height="18" rx="5" fill="#171527"/><text x="530" y="791" font-size="10" fill="#94a3b8">moonshot · Dice <tspan fill="#3dff7a">+580</tspan></text>
</svg>
