<svg xmlns="http://www.w3.org/2000/svg" viewBox="0 0 1280 800" font-family="Inter, system-ui, sans-serif">
  <defs>
    <linearGradient id="page" x1="0" y1="0" x2="1" y2="1"><stop offset="0" stop-color="#0a0911"/><stop offset="1" stop-color="#0d0c16"/></linearGradient>
    <linearGradient id="brand" x1="0" y1="0" x2="1" y2="0"><stop offset="0" stop-color="#9d7bff"/><stop offset="1" stop-color="#ff4d8d"/></linearGradient>
    <linearGradient id="crashArea" x1="0" y1="0" x2="0" y2="1"><stop offset="0" stop-color="#00e701" stop-opacity="0.32"/><stop offset="1" stop-color="#00e701" stop-opacity="0"/></linearGradient>
    <radialGradient id="cg" cx="0.5" cy="0.5" r="0.6"><stop offset="0" stop-color="#00e701" stop-opacity="0.16"/><stop offset="1" stop-color="#00e701" stop-opacity="0"/></radialGradient>
  </defs>
  <rect width="1280" height="800" fill="url(#page)"/>

  <!-- ===== Sidebar ===== -->
  <rect x="0" y="0" width="240" height="800" fill="#0d0c16"/>
  <line x1="240" y1="0" x2="240" y2="800" stroke="#fff" stroke-opacity="0.05"/>
  <g transform="translate(20,22)">
    <rect width="34" height="34" rx="9" fill="#0d0c16" stroke="url(#brand)" stroke-width="1.5"/>
    <text x="10" y="24" font-size="20" font-weight="900" fill="url(#brand)">C</text>
    <text x="46" y="25" font-size="22" font-weight="800" fill="#fff">Cr<tspan fill="url(#brand)">ow</tspan></text>
  </g>
  <g font-size="14" font-weight="600">
    <text x="44" y="103" fill="#94a3b8">Home</text><circle cx="28" cy="98" r="6" fill="none" stroke="#94a3b8" stroke-width="1.5"/>
    <text x="44" y="148" fill="#94a3b8">Sports</text><circle cx="28" cy="143" r="6" fill="none" stroke="#94a3b8" stroke-width="1.5"/>
    <rect x="178" y="130" width="42" height="20" rx="6" fill="#ff3b5c" fill-opacity="0.15"/><text x="186" y="144" font-size="10" fill="#ff3b5c" font-weight="700">LIVE</text>
    <text x="44" y="193" fill="#94a3b8">Casino</text><rect x="22" y="180" width="12" height="12" rx="3" fill="none" stroke="#94a3b8" stroke-width="1.5"/>
    <rect x="14" y="213" width="212" height="40" rx="11" fill="#171527"/><rect x="14" y="213" width="3" height="40" rx="2" fill="#7c5cff"/>
    <text x="44" y="238" fill="#fff">Crash</text><path d="M22 240 l5-6 4 4 6-9" stroke="#7c5cff" stroke-width="1.6" fill="none"/>
    <text x="44" y="283" fill="#94a3b8">X-Roulette</text><circle cx="28" cy="278" r="6" fill="none" stroke="#00e701" stroke-width="1.5"/>
    <text x="44" y="328" fill="#94a3b8">Jackpot</text><path d="M28 318 l2 5 5 .5 -4 4 1 5 -4 -3 -4 3 1 -5 -4 -4 5 -.5z" fill="#ffb800"/>
    <text x="44" y="373" fill="#94a3b8">Rewards</text><rect x="22" y="362" width="12" height="10" rx="2" fill="none" stroke="#ff4d8d" stroke-width="1.5"/>
  </g>
  <rect x="14" y="420" width="212" height="86" rx="14" fill="#12111f" stroke="#fff" stroke-opacity="0.05"/>
  <text x="30" y="448" font-size="12.5" font-weight="700" fill="#fff">🛡 Provably Fair</text>
  <text x="30" y="470" font-size="11" fill="#64748b">Every round verifiable</text>
  <text x="30" y="486" font-size="11" fill="#64748b">with SHA-256 seeds.</text>

  <!-- ===== Topbar ===== -->
  <rect x="240" y="0" width="1040" height="64" fill="#0d0c16"/>
  <line x1="240" y1="64" x2="1280" y2="64" stroke="#fff" stroke-opacity="0.05"/>
  <rect x="268" y="16" width="340" height="34" rx="10" fill="#171527"/>
  <text x="296" y="38" font-size="13" fill="#64748b">Search games, teams, markets…</text>
  <rect x="900" y="14" width="120" height="38" rx="11" fill="#171527"/>
  <text x="918" y="32" font-size="13" font-family="JetBrains Mono, monospace" font-weight="700" fill="#fff">10,000.00</text>
  <text x="918" y="46" font-size="9" fill="#64748b">CREDITS</text>
  <rect x="1032" y="14" width="104" height="38" rx="11" fill="#00e701"/><text x="1052" y="38" font-size="13" font-weight="800" fill="#000">+ Deposit</text>
  <rect x="1148" y="14" width="110" height="38" rx="11" fill="#171527"/>
  <circle cx="1168" cy="33" r="13" fill="#7c5cff"/><text x="1163" y="38" font-size="12" font-weight="700" fill="#fff">D</text>
  <text x="1188" y="30" font-size="12" font-weight="700" fill="#fff">demo</text><text x="1188" y="44" font-size="10" fill="#ffb800">Lvl 1</text>

  <!-- ===== Page title ===== -->
  <text x="268" y="120" font-size="22" font-weight="900" fill="#fff">⚡ Crash</text>
  <rect x="372" y="100" width="208" height="26" rx="13" fill="#00e701" fill-opacity="0.1"/>
  <text x="388" y="117" font-size="11" font-weight="700" fill="#3dff7a">99% RTP · Provably Fair</text>

  <!-- ===== History chips ===== -->
  <g font-family="JetBrains Mono, monospace" font-size="12" font-weight="700">
    <rect x="268" y="140" width="64" height="28" rx="9" fill="#ff3b5c" fill-opacity="0.14"/><text x="300" y="159" fill="#ff3b5c" text-anchor="middle">1.24×</text>
    <rect x="342" y="140" width="64" height="28" rx="9" fill="#00e701" fill-opacity="0.14"/><text x="374" y="159" fill="#3dff7a" text-anchor="middle">8.40×</text>
    <rect x="416" y="140" width="64" height="28" rx="9" fill="#00e701" fill-opacity="0.14"/><text x="448" y="159" fill="#3dff7a" text-anchor="middle">2.10×</text>
    <rect x="490" y="140" width="64" height="28" rx="9" fill="#ff3b5c" fill-opacity="0.14"/><text x="522" y="159" fill="#ff3b5c" text-anchor="middle">1.02×</text>
    <rect x="564" y="140" width="64" height="28" rx="9" fill="#00e701" fill-opacity="0.14"/><text x="596" y="159" fill="#3dff7a" text-anchor="middle">5.67×</text>
    <rect x="638" y="140" width="64" height="28" rx="9" fill="#00e701" fill-opacity="0.14"/><text x="670" y="159" fill="#3dff7a" text-anchor="middle">3.30×</text>
  </g>

  <!-- ===== Chart panel ===== -->
  <rect x="268" y="186" width="620" height="340" rx="16" fill="#12111f" stroke="#fff" stroke-opacity="0.05"/>
  <circle cx="578" cy="356" r="220" fill="url(#cg)"/>
  <!-- y/x baseline -->
  <line x1="300" y1="490" x2="856" y2="490" stroke="#fff" stroke-opacity="0.06"/>
  <line x1="300" y1="220" x2="300" y2="490" stroke="#fff" stroke-opacity="0.06"/>
  <!-- area fill under curve -->
  <path d="M300 490 C 470 488, 620 470, 720 400 C 790 350, 835 280, 856 222 L856 490 Z" fill="url(#crashArea)"/>
  <!-- crash curve -->
  <polyline points="300,490 380,486 460,478 540,462 610,432 680,388 730,338 780,278 820,236 856,222" fill="none" stroke="#00e701" stroke-width="3" stroke-linecap="round" stroke-linejoin="round"/>
  <circle cx="856" cy="222" r="5.5" fill="#3dff7a"/>
  <!-- big multiplier centered over chart -->
  <text x="578" y="356" font-family="JetBrains Mono, monospace" font-size="64" font-weight="800" fill="#3dff7a" text-anchor="middle">4.82×</text>
  <text x="578" y="392" font-size="15" font-weight="700" fill="#94a3b8" text-anchor="middle">🚀 In flight…</text>

  <!-- ===== Bet panel ===== -->
  <rect x="904" y="186" width="300" height="340" rx="16" fill="#12111f" stroke="#fff" stroke-opacity="0.05"/>
  <text x="924" y="216" font-size="12" font-weight="700" fill="#94a3b8">Bet amount</text>
  <rect x="924" y="226" width="172" height="40" rx="10" fill="#171527"/>
  <text x="940" y="251" font-size="15" font-family="JetBrains Mono, monospace" font-weight="700" fill="#fff">50</text>
  <rect x="1104" y="226" width="38" height="40" rx="10" fill="#1d1b30"/><text x="1123" y="251" font-size="12" font-weight="700" fill="#e2e8f0" text-anchor="middle">½</text>
  <rect x="1148" y="226" width="40" height="40" rx="10" fill="#1d1b30"/><text x="1168" y="251" font-size="12" font-weight="700" fill="#e2e8f0" text-anchor="middle">2×</text>

  <text x="924" y="296" font-size="12" font-weight="700" fill="#94a3b8">Auto cash-out</text>
  <rect x="924" y="306" width="264" height="40" rx="10" fill="#171527"/>
  <text x="940" y="331" font-size="15" font-family="JetBrains Mono, monospace" font-weight="700" fill="#fff">2.0<tspan fill="#64748b">×</tspan></text>

  <rect x="924" y="362" width="264" height="58" rx="12" fill="#00e701"/>
  <text x="1056" y="390" font-size="17" font-weight="800" fill="#000" text-anchor="middle">Cash Out · 4.82×</text>
  <text x="1056" y="409" font-size="11" font-weight="700" fill="#0a3d00" text-anchor="middle">Locks in 241.00 credits</text>

  <line x1="924" y1="438" x2="1188" y2="438" stroke="#fff" stroke-opacity="0.06"/>
  <text x="924" y="466" font-size="13" font-weight="600" fill="#94a3b8">Balance</text>
  <text x="1188" y="466" font-size="15" font-family="JetBrains Mono, monospace" font-weight="700" fill="#3dff7a" text-anchor="end">9,950.00</text>
  <rect x="924" y="482" width="264" height="30" rx="9" fill="#171527"/>
  <text x="940" y="501" font-size="11" fill="#64748b">ℹ Auto cash-out at 2.0× · max 1000×</text>

  <!-- ===== Players this round ===== -->
  <rect x="268" y="546" width="620" height="210" rx="16" fill="#12111f" stroke="#fff" stroke-opacity="0.05"/>
  <text x="288" y="576" font-size="14" font-weight="800" fill="#fff">Players this round (5)</text>
  <text x="868" y="576" font-size="11" fill="#64748b" text-anchor="end">cashed out / multiplier</text>
  <g font-size="13">
    <line x1="288" y1="592" x2="868" y2="592" stroke="#fff" stroke-opacity="0.05"/>
    <circle cx="298" cy="613" r="8" fill="#7c5cff"/><text x="294" y="617" font-size="9" font-weight="700" fill="#fff">c</text>
    <text x="318" y="617" font-weight="700" fill="#e2e8f0">cryptoKing</text>
    <text x="868" y="617" font-family="JetBrains Mono, monospace" font-weight="700" fill="#3dff7a" text-anchor="end">2.30×</text>
    <line x1="288" y1="630" x2="868" y2="630" stroke="#fff" stroke-opacity="0.04"/>

    <circle cx="298" cy="649" r="8" fill="#ff4d8d"/><text x="294" y="653" font-size="9" font-weight="700" fill="#fff">d</text>
    <text x="318" y="653" font-weight="700" fill="#e2e8f0">degenDan</text>
    <text x="868" y="653" font-family="JetBrains Mono, monospace" font-weight="700" fill="#64748b" text-anchor="end">50</text>
    <line x1="288" y1="666" x2="868" y2="666" stroke="#fff" stroke-opacity="0.04"/>

    <circle cx="298" cy="685" r="8" fill="#ffb800"/><text x="294" y="689" font-size="9" font-weight="700" fill="#000">m</text>
    <text x="318" y="689" font-weight="700" fill="#e2e8f0">moonshot</text>
    <text x="868" y="689" font-family="JetBrains Mono, monospace" font-weight="700" fill="#3dff7a" text-anchor="end">4.10×</text>
    <line x1="288" y1="702" x2="868" y2="702" stroke="#fff" stroke-opacity="0.04"/>

    <circle cx="298" cy="721" r="8" fill="#00e701"/><text x="294" y="725" font-size="9" font-weight="700" fill="#000">s</text>
    <text x="318" y="725" font-weight="700" fill="#e2e8f0">satoshiJr</text>
    <text x="868" y="725" font-family="JetBrains Mono, monospace" font-weight="700" fill="#64748b" text-anchor="end">120</text>
    <line x1="288" y1="738" x2="868" y2="738" stroke="#fff" stroke-opacity="0.04"/>

    <circle cx="298" cy="649" r="0" fill="none"/>
    <g transform="translate(0,36)">
      <circle cx="298" cy="721" r="8" fill="#7c5cff"/><text x="294" y="725" font-size="9" font-weight="700" fill="#fff">w</text>
      <text x="318" y="725" font-weight="700" fill="#e2e8f0">whaleWei</text>
      <text x="868" y="725" font-family="JetBrains Mono, monospace" font-weight="700" fill="#3dff7a" text-anchor="end">1.80×</text>
    </g>
  </g>

  <!-- ===== Live ticker ===== -->
  <rect x="240" y="772" width="1040" height="28" fill="#0d0c16"/><line x1="240" y1="772" x2="1280" y2="772" stroke="#fff" stroke-opacity="0.05"/>
  <text x="268" y="790" font-size="11" font-weight="800" fill="#3dff7a">● LIVE WINS</text>
  <rect x="360" y="778" width="150" height="18" rx="5" fill="#171527"/><text x="370" y="791" font-size="10" fill="#94a3b8">degenDan · Crash <tspan fill="#3dff7a">+1,240</tspan></text>
  <rect x="520" y="778" width="150" height="18" rx="5" fill="#171527"/><text x="530" y="791" font-size="10" fill="#94a3b8">moonshot · Dice <tspan fill="#3dff7a">+580</tspan></text>
  <rect x="680" y="778" width="160" height="18" rx="5" fill="#171527"/><text x="690" y="791" font-size="10" fill="#94a3b8">cryptoKing · Roulette <tspan fill="#3dff7a">+2,800</tspan></text>
</svg>
