<svg xmlns="http://www.w3.org/2000/svg" viewBox="0 0 1280 800" font-family="Inter, system-ui, sans-serif">
  <defs>
    <linearGradient id="page" x1="0" y1="0" x2="1" y2="1"><stop offset="0" stop-color="#0a0911"/><stop offset="1" stop-color="#0d0c16"/></linearGradient>
    <linearGradient id="brand" x1="0" y1="0" x2="1" y2="0"><stop offset="0" stop-color="#9d7bff"/><stop offset="1" stop-color="#ff4d8d"/></linearGradient>
    <linearGradient id="join" x1="0" y1="0" x2="1" y2="0"><stop offset="0" stop-color="#7c5cff"/><stop offset="1" stop-color="#ff4d8d"/></linearGradient>
    <radialGradient id="potglow" cx="0.5" cy="0.5" r="0.5"><stop offset="0" stop-color="#7c5cff" stop-opacity="0.35"/><stop offset="1" stop-color="#7c5cff" stop-opacity="0"/></radialGradient>
  </defs>
  <rect width="1280" height="800" fill="url(#page)"/>

  <!-- ===== Sidebar ===== -->
  <rect x="0" y="0" width="240" height="800" fill="#0d0c16"/>
  <line x1="240" y1="0" x2="240" y2="800" stroke="#fff" stroke-opacity="0.05"/>
  <g transform="translate(20,22)">
    <rect width="34" height="34" rx="9" fill="#0d0c16" stroke="url(#brand)" stroke-width="1.5"/>
    <text x="10" y="24" font-size="20" font-weight="900" fill="url(#brand)">C</text>
    <text x="46" y="25" font-size="22" font-weight="800" fill="#fff">Cr<tspan fill="url(#brand)">ow</tspan></text>
  </g>
  <g font-size="14" font-weight="600">
    <text x="44" y="103" fill="#94a3b8">Home</text><circle cx="28" cy="98" r="6" fill="none" stroke="#94a3b8" stroke-width="1.5"/>
    <text x="44" y="148" fill="#94a3b8">Sports</text><circle cx="28" cy="143" r="6" fill="none" stroke="#94a3b8" stroke-width="1.5"/>
    <rect x="178" y="130" width="42" height="20" rx="6" fill="#ff3b5c" fill-opacity="0.15"/><text x="186" y="144" font-size="10" fill="#ff3b5c" font-weight="700">LIVE</text>
    <text x="44" y="193" fill="#94a3b8">Casino</text><rect x="22" y="180" width="12" height="12" rx="3" fill="none" stroke="#94a3b8" stroke-width="1.5"/>
    <text x="44" y="238" fill="#94a3b8">Crash</text><path d="M22 240 l5-6 4 4 6-9" stroke="#7c5cff" stroke-width="1.6" fill="none"/>
    <text x="44" y="283" fill="#94a3b8">X-Roulette</text><circle cx="28" cy="278" r="6" fill="none" stroke="#00e701" stroke-width="1.5"/>
    <rect x="14" y="308" width="212" height="40" rx="11" fill="#171527"/><rect x="14" y="308" width="3" height="40" rx="2" fill="#7c5cff"/>
    <text x="44" y="333" fill="#fff">Jackpot</text><path d="M28 323 l2 5 5 .5 -4 4 1 5 -4 -3 -4 3 1 -5 -4 -4 5 -.5z" fill="#ffb800"/>
    <text x="44" y="378" fill="#94a3b8">Rewards</text><rect x="22" y="367" width="12" height="10" rx="2" fill="none" stroke="#ff4d8d" stroke-width="1.5"/>
  </g>
  <rect x="14" y="420" width="212" height="86" rx="14" fill="#12111f" stroke="#fff" stroke-opacity="0.05"/>
  <text x="30" y="448" font-size="12.5" font-weight="700" fill="#fff">🛡 Provably Fair</text>
  <text x="30" y="470" font-size="11" fill="#64748b">Every round verifiable</text>
  <text x="30" y="486" font-size="11" fill="#64748b">with SHA-256 seeds.</text>

  <!-- ===== Topbar ===== -->
  <rect x="240" y="0" width="1040" height="64" fill="#0d0c16"/>
  <line x1="240" y1="64" x2="1280" y2="64" stroke="#fff" stroke-opacity="0.05"/>
  <rect x="268" y="16" width="340" height="34" rx="10" fill="#171527"/>
  <text x="296" y="38" font-size="13" fill="#64748b">Search games, teams, markets…</text>
  <rect x="900" y="14" width="120" height="38" rx="11" fill="#171527"/>
  <text x="918" y="32" font-size="13" font-family="JetBrains Mono, monospace" font-weight="700" fill="#fff">10,000.00</text>
  <text x="918" y="46" font-size="9" fill="#64748b">CREDITS</text>
  <rect x="1032" y="14" width="104" height="38" rx="11" fill="#00e701"/><text x="1052" y="38" font-size="13" font-weight="800" fill="#000">+ Deposit</text>
  <rect x="1148" y="14" width="110" height="38" rx="11" fill="#171527"/>
  <circle cx="1168" cy="33" r="13" fill="#7c5cff"/><text x="1163" y="38" font-size="12" font-weight="700" fill="#fff">D</text>
  <text x="1188" y="30" font-size="12" font-weight="700" fill="#fff">demo</text><text x="1188" y="44" font-size="10" fill="#ffb800">Lvl 1</text>

  <!-- ===== LEFT COLUMN ===== -->
  <text x="268" y="118" font-size="26" font-weight="900" fill="#fff"><tspan fill="#ffb800">★</tspan> Jackpot</text>

  <!-- Pie panel -->
  <rect x="268" y="138" width="662" height="372" rx="18" fill="#12111f" stroke="#fff" stroke-opacity="0.06"/>
  <circle cx="599" cy="324" r="150" fill="url(#potglow)"/>
  <!-- Pie ring (stroke-dasharray, r=110, circumference ≈ 691.15) -->
  <g transform="rotate(-90 599 324)" fill="none" stroke-width="44" stroke-linecap="butt">
    <!-- cryptoKing 40.3% -->
    <circle cx="599" cy="324" r="110" stroke="#7c5cff" stroke-dasharray="278.5 412.6" stroke-dashoffset="0"/>
    <!-- moonshot 30.6% -->
    <circle cx="599" cy="324" r="110" stroke="#00e701" stroke-dasharray="211.5 479.7" stroke-dashoffset="-278.5"/>
    <!-- degenDan 21.0% -->
    <circle cx="599" cy="324" r="110" stroke="#ff4d8d" stroke-dasharray="145.1 546.0" stroke-dashoffset="-490.0"/>
    <!-- demo 8.1% -->
    <circle cx="599" cy="324" r="110" stroke="#ffb800" stroke-dasharray="56.0 635.2" stroke-dashoffset="-635.2"/>
  </g>
  <!-- thin cyan accent rim -->
  <circle cx="599" cy="324" r="138" fill="none" stroke="#22d3ee" stroke-opacity="0.18" stroke-width="1.5"/>
  <!-- inner dark circle -->
  <circle cx="599" cy="324" r="84" fill="#0d0c16" stroke="#fff" stroke-opacity="0.06"/>
  <text x="599" y="298" font-size="11" font-weight="700" fill="#94a3b8" text-anchor="middle" letter-spacing="1">TOTAL POT</text>
  <text x="599" y="338" font-size="40" font-family="JetBrains Mono, monospace" font-weight="800" fill="#ffb800" text-anchor="middle">12,400</text>
  <text x="599" y="362" font-size="12" fill="#94a3b8" text-anchor="middle">Drawing in 18.3s</text>

  <!-- Entries panel -->
  <rect x="268" y="528" width="662" height="244" rx="18" fill="#12111f" stroke="#fff" stroke-opacity="0.06"/>
  <text x="292" y="562" font-size="15" font-weight="800" fill="#fff">Entries <tspan fill="#94a3b8" font-weight="600">(4)</tspan></text>
  <g font-size="14">
    <!-- row 1 -->
    <line x1="292" y1="582" x2="906" y2="582" stroke="#fff" stroke-opacity="0.05"/>
    <circle cx="304" cy="606" r="6" fill="#7c5cff"/>
    <text x="322" y="611" fill="#fff" font-weight="600">cryptoKing</text>
    <text x="760" y="611" font-family="JetBrains Mono, monospace" font-weight="700" fill="#e2e8f0" text-anchor="end">5,000</text>
    <text x="906" y="611" font-family="JetBrains Mono, monospace" font-weight="700" fill="#9d7bff" text-anchor="end">40.3%</text>
    <!-- row 2 -->
    <line x1="292" y1="628" x2="906" y2="628" stroke="#fff" stroke-opacity="0.05"/>
    <circle cx="304" cy="652" r="6" fill="#00e701"/>
    <text x="322" y="657" fill="#fff" font-weight="600">moonshot</text>
    <text x="760" y="657" font-family="JetBrains Mono, monospace" font-weight="700" fill="#e2e8f0" text-anchor="end">3,800</text>
    <text x="906" y="657" font-family="JetBrains Mono, monospace" font-weight="700" fill="#9d7bff" text-anchor="end">30.6%</text>
    <!-- row 3 -->
    <line x1="292" y1="674" x2="906" y2="674" stroke="#fff" stroke-opacity="0.05"/>
    <circle cx="304" cy="698" r="6" fill="#ff4d8d"/>
    <text x="322" y="703" fill="#fff" font-weight="600">degenDan</text>
    <text x="760" y="703" font-family="JetBrains Mono, monospace" font-weight="700" fill="#e2e8f0" text-anchor="end">2,600</text>
    <text x="906" y="703" font-family="JetBrains Mono, monospace" font-weight="700" fill="#9d7bff" text-anchor="end">21.0%</text>
    <!-- row 4 -->
    <line x1="292" y1="720" x2="906" y2="720" stroke="#fff" stroke-opacity="0.05"/>
    <circle cx="304" cy="744" r="6" fill="#ffb800"/>
    <text x="322" y="749" fill="#fff" font-weight="600">demo</text>
    <text x="760" y="749" font-family="JetBrains Mono, monospace" font-weight="700" fill="#e2e8f0" text-anchor="end">1,000</text>
    <text x="906" y="749" font-family="JetBrains Mono, monospace" font-weight="700" fill="#9d7bff" text-anchor="end">8.1%</text>
  </g>

  <!-- ===== RIGHT ASIDE ===== -->
  <!-- Entry panel -->
  <rect x="942" y="138" width="310" height="288" rx="18" fill="#12111f" stroke="#fff" stroke-opacity="0.06"/>
  <text x="966" y="170" font-size="12" font-weight="700" fill="#94a3b8">Entry amount</text>
  <rect x="966" y="182" width="262" height="46" rx="12" fill="#171527" stroke="#fff" stroke-opacity="0.05"/>
  <text x="984" y="211" font-size="18" font-family="JetBrains Mono, monospace" font-weight="700" fill="#fff">100</text>
  <text x="1210" y="211" font-size="11" fill="#64748b" text-anchor="end">CREDITS</text>
  <!-- quick chips -->
  <rect x="966" y="242" width="80" height="34" rx="10" fill="#1d1b30"/><text x="1006" y="264" font-size="13" font-weight="700" fill="#e2e8f0" text-anchor="middle">50</text>
  <rect x="1056" y="242" width="80" height="34" rx="10" fill="#1d1b30" stroke="#7c5cff"/><text x="1096" y="264" font-size="13" font-weight="700" fill="#fff" text-anchor="middle">100</text>
  <rect x="1146" y="242" width="82" height="34" rx="10" fill="#1d1b30"/><text x="1187" y="264" font-size="13" font-weight="700" fill="#e2e8f0" text-anchor="middle">500</text>
  <!-- join button -->
  <rect x="966" y="292" width="262" height="50" rx="14" fill="url(#join)"/>
  <text x="1097" y="323" font-size="16" font-weight="800" fill="#fff" text-anchor="middle">Join Jackpot</text>
  <text x="966" y="368" font-size="11" fill="#64748b">5% house rake · provably fair</text>
  <text x="966" y="386" font-size="11" fill="#64748b">winner draw</text>

  <!-- Recent winners -->
  <rect x="942" y="442" width="310" height="220" rx="18" fill="#12111f" stroke="#fff" stroke-opacity="0.06"/>
  <text x="966" y="476" font-size="15" font-weight="800" fill="#fff">Recent winners</text>
  <g font-size="14">
    <line x1="966" y1="494" x2="1228" y2="494" stroke="#fff" stroke-opacity="0.05"/>
    <circle cx="978" cy="518" r="6" fill="#ffb800"/>
    <text x="996" y="523" fill="#fff" font-weight="600">luckyLuke</text>
    <text x="1228" y="523" font-family="JetBrains Mono, monospace" font-weight="700" fill="#ffb800" text-anchor="end">+8,200</text>
    <line x1="966" y1="540" x2="1228" y2="540" stroke="#fff" stroke-opacity="0.05"/>
    <circle cx="978" cy="564" r="6" fill="#00e701"/>
    <text x="996" y="569" fill="#fff" font-weight="600">moonshot</text>
    <text x="1228" y="569" font-family="JetBrains Mono, monospace" font-weight="700" fill="#ffb800" text-anchor="end">+14,100</text>
    <line x1="966" y1="586" x2="1228" y2="586" stroke="#fff" stroke-opacity="0.05"/>
    <circle cx="978" cy="610" r="6" fill="#ff4d8d"/>
    <text x="996" y="615" fill="#fff" font-weight="600">degenDan</text>
    <text x="1228" y="615" font-family="JetBrains Mono, monospace" font-weight="700" fill="#ffb800" text-anchor="end">+5,600</text>
  </g>

  <!-- ===== Live ticker ===== -->
  <rect x="240" y="772" width="1040" height="28" fill="#0d0c16"/><line x1="240" y1="772" x2="1280" y2="772" stroke="#fff" stroke-opacity="0.05"/>
  <text x="268" y="790" font-size="11" font-weight="800" fill="#3dff7a">● LIVE WINS</text>
  <rect x="360" y="778" width="150" height="18" rx="5" fill="#171527"/><text x="370" y="791" font-size="10" fill="#94a3b8">degenDan · Crash <tspan fill="#3dff7a">+1,240</tspan></text>
  <rect x="520" y="778" width="150" height="18" rx="5" fill="#171527"/><text x="530" y="791" font-size="10" fill="#94a3b8">moonshot · Dice <tspan fill="#3dff7a">+580</tspan></text>
  <rect x="680" y="778" width="160" height="18" rx="5" fill="#171527"/><text x="690" y="791" font-size="10" fill="#94a3b8">cryptoKing · Roulette <tspan fill="#3dff7a">+2,800</tspan></text>
</svg>
